<mxfile host="app.diagrams.net" modified="2021-11-18T20:07:47.806Z" agent="5.0 (Windows NT 10.0; Win64; x64) AppleWebKit/537.36 (KHTML, like Gecko) Chrome/96.0.4664.45 Safari/537.36" etag="dOX91joctUcYzMxAaOH_" version="15.8.0" type="github">
  <diagram id="WOldtQZ7vfpcK4dOyafj" name="Page-1">
    <mxGraphModel dx="1422" dy="2014" grid="1" gridSize="10" guides="1" tooltips="1" connect="1" arrows="1" fold="1" page="1" pageScale="1" pageWidth="850" pageHeight="1100" math="0" shadow="0">
      <root>
        <mxCell id="0" />
        <mxCell id="1" parent="0" />
        <mxCell id="XJSGAKonJKHo_-erPBdd-3" value="" style="edgeStyle=orthogonalEdgeStyle;rounded=0;orthogonalLoop=1;jettySize=auto;html=1;" parent="1" source="XJSGAKonJKHo_-erPBdd-4" target="XJSGAKonJKHo_-erPBdd-7" edge="1">
          <mxGeometry relative="1" as="geometry" />
        </mxCell>
        <mxCell id="XJSGAKonJKHo_-erPBdd-4" value="gsea_main.py&lt;br&gt;&lt;br&gt;-parser&lt;br&gt;- main functions that call the subroutines" style="rounded=0;whiteSpace=wrap;html=1;fillColor=#f5f5f5;fontColor=#333333;strokeColor=#666666;" parent="1" vertex="1">
          <mxGeometry x="340" y="30" width="130" height="100" as="geometry" />
        </mxCell>
        <mxCell id="XJSGAKonJKHo_-erPBdd-5" value="gsea_calc.py&lt;br&gt;&lt;br&gt;- calculate the NES for the rank files for all gene sets&lt;br&gt;(prerank() from gseapy)&lt;br&gt;&lt;br&gt;--&amp;gt; generate a dataframe of enrichment values called pre_res for each rank files and each gene sets" style="rounded=0;whiteSpace=wrap;html=1;fillColor=#fff2cc;strokeColor=#d6b656;" parent="1" vertex="1">
          <mxGeometry x="110" y="180" width="190" height="160" as="geometry" />
        </mxCell>
        <mxCell id="XJSGAKonJKHo_-erPBdd-6" value="gseap_select.py&lt;br&gt;&lt;br&gt;- reorder the pre_res dataframe by best NES values for each rank files and each genes sets" style="rounded=0;whiteSpace=wrap;html=1;fillColor=#d5e8d4;strokeColor=#82b366;" parent="1" vertex="1">
          <mxGeometry x="312.5" y="180" width="185" height="160" as="geometry" />
        </mxCell>
        <mxCell id="XJSGAKonJKHo_-erPBdd-7" value="enrichment_plot.py&lt;br&gt;&lt;br&gt;- take the best 20 NES value and generate the enrichment plot for each of them" style="rounded=0;whiteSpace=wrap;html=1;fillColor=#f5f5f5;fontColor=#333333;strokeColor=#666666;" parent="1" vertex="1">
          <mxGeometry x="520" y="180" width="190" height="160" as="geometry" />
        </mxCell>
        <mxCell id="9fcCoiOB3u7c9ERSo8vJ-1" value="setup_rnk_files.py&lt;br&gt;&lt;br&gt;-prepare directories&lt;br&gt;-prepare rnk files" style="rounded=0;whiteSpace=wrap;html=1;fillColor=#ffe6cc;strokeColor=#d79b00;" vertex="1" parent="1">
          <mxGeometry x="40" y="-60" width="190" height="160" as="geometry" />
        </mxCell>
        <mxCell id="9fcCoiOB3u7c9ERSo8vJ-3" value="" style="endArrow=classic;startArrow=classic;html=1;rounded=0;exitX=1;exitY=0.5;exitDx=0;exitDy=0;entryX=0;entryY=0.5;entryDx=0;entryDy=0;" edge="1" parent="1" source="9fcCoiOB3u7c9ERSo8vJ-1" target="XJSGAKonJKHo_-erPBdd-4">
          <mxGeometry width="50" height="50" relative="1" as="geometry">
            <mxPoint x="400" y="310" as="sourcePoint" />
            <mxPoint x="450" y="260" as="targetPoint" />
            <Array as="points">
              <mxPoint x="280" y="20" />
              <mxPoint x="280" y="80" />
            </Array>
          </mxGeometry>
        </mxCell>
        <mxCell id="9fcCoiOB3u7c9ERSo8vJ-4" value="" style="endArrow=classic;startArrow=classic;html=1;rounded=0;exitX=0.5;exitY=0;exitDx=0;exitDy=0;entryX=0.25;entryY=1;entryDx=0;entryDy=0;" edge="1" parent="1" source="XJSGAKonJKHo_-erPBdd-5" target="XJSGAKonJKHo_-erPBdd-4">
          <mxGeometry width="50" height="50" relative="1" as="geometry">
            <mxPoint x="400" y="310" as="sourcePoint" />
            <mxPoint x="450" y="260" as="targetPoint" />
            <Array as="points">
              <mxPoint x="205" y="150" />
              <mxPoint x="373" y="150" />
            </Array>
          </mxGeometry>
        </mxCell>
        <mxCell id="9fcCoiOB3u7c9ERSo8vJ-5" value="" style="endArrow=classic;startArrow=classic;html=1;rounded=0;entryX=0.5;entryY=1;entryDx=0;entryDy=0;exitX=0.5;exitY=0;exitDx=0;exitDy=0;" edge="1" parent="1" source="XJSGAKonJKHo_-erPBdd-6" target="XJSGAKonJKHo_-erPBdd-4">
          <mxGeometry width="50" height="50" relative="1" as="geometry">
            <mxPoint x="400" y="310" as="sourcePoint" />
            <mxPoint x="450" y="260" as="targetPoint" />
          </mxGeometry>
        </mxCell>
      </root>
    </mxGraphModel>
  </diagram>
</mxfile>
